<svg xmlns="http://www.w3.org/2000/svg" width="1183" height="1183" viewBox="0 -136.5 1183 1183"><path style="display:inline;fill:#fff;fill-opacity:1;stroke:#00427a;stroke-width:10.5;stroke-dasharray:none;stroke-opacity:1" d="M264 595s-51.731-2.04-85-35-35-85-35-85V248s2.203-51.973 35-85 85-35 85-35h228s51.97 1.625 85 35 35 85 35 85v206l143 141z" transform="matrix(1.90297 0 0 1.90576 -264.037 -233.932)"/><path style="fill:#00a796;fill-opacity:1" d="M404.175 543v-85h23.655c27.748 0 31.453-1.49 37.576-9.518 6.01-7.88 8.706-12.876 8.769-36.26.032-11.978 0-24.222 0-24.222l147.667 155z" transform="matrix(1.90297 0 0 1.90576 -264.037 -233.932)"/><path style="fill:#00427a;fill-opacity:1" d="M244.508 538.819c-21.927-7.09-38.21-23.277-45.656-45.39-2.806-8.332-3.146-10.956-2.677-53.429.196-17.763.421-52.55 0-52h85v23.667c0 25.511 1.004 28.726 8.486 36.785 6.594 7.104 12.404 9.548 35.448 9.548h26.066v85h-50.333c-43.198 0-49.869-2.09-56.334-4.181m-48.333-232.041c0-45.486.177-68.013 2.464-76.111 6.127-21.693 22.22-38.872 43.927-46.887 7.54-2.785 10.451-3.78 57.609-3.78h51v85h-24.798c-25.883 0-28.927 1.037-36.676 8.81-7.472 7.495-7.438 11.211-8.526 37.255V335h-85zm278 28.222s.064-12.185 0-27.119c-.104-24.572-4.774-29.073-9.566-34.095s-6.663-8.686-33.434-8.786c-9.402-.035-27 0-27 0v-85h42.411c24.462 0 47.597.632 53 1.448 13.375 2.02 27.143 8.873 36.738 18.285 9.194 9.019 18.119 25.982 20.132 38.267.721 4.4 2.733 20.297 2.719 35.333-.026 27.533 0 61.667 0 61.667z" transform="matrix(1.90297 0 0 1.90576 -264.037 -233.932)"/></svg>